<?xml version="1.0" encoding="utf-8"?><svg xmlns="http://www.w3.org/2000/svg" xmlns:xlink="http://www.w3.org/1999/xlink"><symbol viewBox="0 0 30 30" id="arrow" xmlns="http://www.w3.org/2000/svg"><path d="M8.196 30c-.462 0-.877-.169-1.2-.488a1.638 1.638 0 0 1 0-2.349l12.41-12.171L6.996 2.82c-.32-.313-.496-.73-.496-1.175S6.676.783 6.996.47C7.3.171 7.738 0 8.196 0c.458 0 .896.171 1.2.47l13.608 13.347a1.64 1.64 0 0 1 0 2.35L9.396 29.513a1.68 1.68 0 0 1-1.2.487z"/></symbol><symbol viewBox="0 0 30 30" id="point" xmlns="http://www.w3.org/2000/svg"><path d="M15 0C9.477 0 5 4.477 5 10c0 1.82.486 3.527 1.336 4.997C8.065 17.988 15 30 15 30s6.933-12.011 8.662-15A9.954 9.954 0 0 0 25 10c0-5.523-4.477-10-10-10zm0 13a4 4 0 1 1 0-8 4 4 0 0 1 0 8z"/></symbol></svg>